# xmcd
#
# Track frame offsets:
#	150
#	16780
#	36543
#	53745
#	69983
#	82318
#	98635
#	127215
#	145895
#	164498
#	179598
#	194965
#	211883
#
# Disc length: 2956 seconds
#
# Revision: 3
# Processed by: cddbd v1.5.1PL0 Copyright (c) Steve Scherf et al.
# Submitted via: audiograbber 1.83.01
#
DISCID=c80b8a0d
DTITLE=Waltons - Thrust of the Vile
DYEAR=1991
DGENRE=Punk Rock
TTITLE0=Winter
TTITLE1=Time of Love
TTITLE2=The Cry of the Wild Goose
TTITLE3=Homewardbound
TTITLE4=The L&N (Don't Stop Here Anymore)
TTITLE5=Tell me Straight
TTITLE6=Rain
TTITLE7=The Eagle Flies (Like a Bomber Again)
TTITLE8=Long-Haired Country Boy
TTITLE9=Rude Boy
TTITLE10=Yes Yes Yes
TTITLE11=Lucille
TTITLE12=Lost Highway
EXTD=YEAR: 1991
EXTT0=
EXTT1=
EXTT2=
EXTT3=
EXTT4=
EXTT5=
EXTT6=
EXTT7=
EXTT8=
EXTT9=
EXTT10=
EXTT11=
EXTT12=
PLAYORDER=
